<?xml version="1.0" standalone="no"?>
<!DOCTYPE svg PUBLIC "-//W3C//DTD SVG 20010904//EN"
 "http://www.w3.org/TR/2001/REC-SVG-20010904/DTD/svg10.dtd">
<svg version="1.0" xmlns="http://www.w3.org/2000/svg"
 width="550.000000pt" height="610.000000pt" viewBox="0 0 550.000000 610.000000"
 preserveAspectRatio="xMidYMid meet">

<g transform="translate(0.000000,610.000000) scale(0.100000,-0.100000)"
fill="#000000" stroke="none">
<path d="M0 3050 l0 -3050 2750 0 2750 0 0 3050 0 3050 -2750 0 -2750 0 0
-3050z m2895 2910 c291 -19 565 -68 659 -118 28 -15 79 -55 114 -89 68 -67 68
-66 267 -498 150 -326 243 -514 296 -604 66 -109 196 -284 284 -381 133 -147
283 -366 373 -547 60 -119 145 -348 178 -481 190 -758 12 -1550 -481 -2142
-307 -370 -659 -615 -1097 -764 -276 -95 -535 -132 -852 -123 -396 11 -694 87
-1043 267 -687 354 -1164 1018 -1288 1795 -22 136 -30 441 -16 590 34 353 155
722 338 1026 64 107 194 283 280 379 126 141 238 298 319 447 27 48 137 278
246 510 108 233 213 446 234 474 45 61 115 118 187 152 62 30 258 69 452 91
226 26 339 29 550 16z"/>
<path d="M2305 5530 c34 -13 48 -39 49 -90 1 -26 -1 -47 -5 -44 -4 2 -12 -3
-19 -11 -15 -19 -8 -19 33 -1 44 18 67 42 67 70 0 28 -34 61 -51 50 -7 -4 -10
-3 -5 4 4 7 -8 15 -31 21 -45 13 -67 13 -38 1z"/>
<path d="M2443 5529 c13 -8 17 -24 17 -74 0 -55 -3 -66 -22 -81 -17 -12 -18
-15 -5 -10 10 3 39 6 64 6 35 0 43 3 36 13 -5 6 -10 24 -12 40 -4 39 24 35 89
-13 29 -22 63 -39 74 -39 20 1 20 1 1 6 -11 3 -24 10 -30 16 -5 7 -22 18 -37
26 -18 9 -25 18 -19 25 6 8 -2 12 -26 14 -19 1 -39 5 -44 8 -14 8 -11 62 4 67
6 3 -15 6 -48 6 -45 0 -56 -2 -42 -10z"/>
<path d="M2623 5529 c9 -5 17 -20 17 -31 0 -12 3 -19 6 -15 12 12 -6 57 -24
57 -16 -1 -16 -1 1 -11z"/>
<path d="M2158 5509 c-43 -22 -62 -51 -53 -80 8 -25 62 -59 93 -59 l22 0 -20
20 c-26 26 -26 80 1 114 25 32 10 34 -43 5z"/>
<path d="M2689 5483 c-13 -16 -12 -17 4 -4 16 13 21 21 13 21 -2 0 -10 -8 -17
-17z"/>
<path d="M2630 5459 c0 -5 5 -7 10 -4 6 3 10 8 10 11 0 2 -4 4 -10 4 -5 0 -10
-5 -10 -11z"/>
<path d="M2734 5421 c7 -11 46 -35 46 -28 0 3 -12 12 -26 22 -15 9 -23 12 -20
6z"/>
<path d="M2490 4911 c-30 -3 53 -6 185 -6 262 -1 396 -16 554 -61 188 -55 242
-104 497 -456 143 -197 229 -304 314 -392 244 -254 375 -460 481 -756 21 -58
38 -100 38 -93 1 6 -15 56 -34 111 -96 276 -232 495 -444 716 -136 142 -175
189 -301 366 -265 371 -318 429 -445 485 -161 72 -580 114 -845 86z"/>
<path d="M2335 4890 c-27 -7 -28 -8 -5 -8 14 -1 43 3 65 7 l40 9 -35 0 c-19 0
-48 -4 -65 -8z"/>
<path d="M2268 4873 c6 -2 18 -2 25 0 6 3 1 5 -13 5 -14 0 -19 -2 -12 -5z"/>
<path d="M2218 4863 c6 -2 18 -2 25 0 6 3 1 5 -13 5 -14 0 -19 -2 -12 -5z"/>
<path d="M2155 4850 c-13 -5 -14 -9 -5 -9 8 0 24 4 35 9 13 5 14 9 5 9 -8 0
-24 -4 -35 -9z"/>
<path d="M2540 4585 l0 -45 40 0 40 0 0 45 0 45 -40 0 -40 0 0 -45z m70 -1 c0
-20 -5 -24 -30 -24 -25 0 -30 4 -30 24 0 26 14 36 43 28 10 -3 17 -14 17 -28z"/>
<path d="M2560 4585 c0 -8 9 -15 20 -15 11 0 20 7 20 15 0 8 -9 15 -20 15 -11
0 -20 -7 -20 -15z"/>
<path d="M2651 4614 c-22 -16 -31 -74 -11 -74 6 0 10 4 10 8 0 5 7 17 16 28
15 19 15 18 9 -3 -3 -12 -1 -24 5 -28 6 -4 10 4 10 18 0 23 2 24 24 14 27 -13
24 -47 -6 -54 -10 -3 -18 -11 -18 -18 0 -7 -15 -12 -35 -13 -37 -1 -73 -26
-55 -37 5 -3 15 -3 20 0 6 3 10 2 10 -4 0 -5 -6 -12 -12 -14 -8 -3 -6 -6 5 -6
21 -1 22 -15 2 -35 -13 -13 -13 -15 5 -21 11 -3 25 -3 31 1 8 4 9 0 4 -15 -4
-12 -2 -21 4 -21 6 0 11 17 11 37 0 37 0 37 16 15 15 -22 52 -32 38 -11 -3 6
0 15 7 20 19 12 59 11 59 -1 0 -5 -9 -10 -21 -10 -12 0 -18 -4 -13 -11 3 -6 0
-15 -7 -20 -12 -8 -12 -10 0 -18 19 -12 -2 -23 -31 -16 -20 5 -24 2 -26 -21
-2 -24 0 -25 15 -13 13 11 17 11 20 2 7 -20 33 -15 33 6 0 14 5 18 20 14 11
-3 20 -12 20 -19 0 -19 46 -18 54 1 3 8 2 22 -1 32 -4 11 -3 14 5 9 7 -4 12
-1 12 8 0 9 -6 16 -12 16 -9 0 -8 3 2 10 12 7 12 12 2 22 -6 6 -12 25 -12 40
0 25 -3 28 -35 28 -19 0 -35 5 -35 11 0 6 -7 9 -15 6 -8 -4 -17 -1 -21 5 -4 7
-9 6 -15 -3 -7 -11 -9 -11 -9 2 0 31 54 39 77 12 13 -16 14 -16 9 -1 -3 11 3
20 22 27 22 9 17 10 -29 5 -45 -4 -58 -2 -62 10 -7 19 4 21 21 4 9 -9 13 -7
18 5 8 23 -3 37 -32 37 -30 0 -30 7 -3 29 21 17 21 18 -28 19 -30 0 -59 -5
-72 -14z m134 -170 c27 -12 28 -14 7 -14 -13 0 -32 5 -43 10 -13 7 -19 7 -19
0 0 -14 -37 -13 -43 3 -4 9 -8 8 -16 -3 -5 -8 -13 -11 -17 -7 -4 4 3 15 15 26
23 20 41 18 116 -15z m68 -38 c6 -15 -1 -26 -15 -26 -4 0 -8 9 -8 20 0 23 15
27 23 6z m-33 -41 c0 -8 -7 -15 -15 -15 -8 0 -15 7 -15 15 0 8 7 15 15 15 8 0
15 -7 15 -15z m30 -15 c0 -5 -5 -10 -11 -10 -5 0 -7 5 -4 10 3 6 8 10 11 10 2
0 4 -4 4 -10z"/>
<path d="M2800 4585 l0 -45 40 0 40 0 0 45 0 45 -40 0 -40 0 0 -45z m68 2 c3
-24 0 -27 -27 -27 -26 0 -31 4 -31 23 0 30 5 34 32 32 17 -1 24 -9 26 -28z"/>
<path d="M2820 4585 c0 -8 9 -15 20 -15 11 0 20 7 20 15 0 8 -9 15 -20 15 -11
0 -20 -7 -20 -15z"/>
<path d="M2543 4453 c-1 -48 2 -66 6 -46 7 36 20 33 38 -7 11 -24 12 -24 12
12 1 28 -3 36 -13 32 -9 -4 -17 9 -25 40 -6 25 -13 46 -14 46 -2 0 -4 -35 -4
-77z"/>
<path d="M2567 4509 c6 -21 23 -26 23 -6 0 9 9 12 29 9 16 -2 36 0 45 5 11 6
-3 9 -43 10 -54 2 -58 0 -54 -18z"/>
<path d="M2830 4485 c0 -8 7 -15 15 -15 9 0 12 6 9 15 -4 8 -10 15 -15 15 -5
0 -9 -7 -9 -15z"/>
<path d="M2540 4325 l0 -45 40 0 40 0 0 45 0 45 -40 0 -40 0 0 -45z m68 3 c3
-25 0 -28 -27 -28 -26 0 -31 4 -31 23 0 30 9 39 35 35 13 -2 21 -12 23 -30z"/>
<path d="M2560 4325 c0 -8 9 -15 20 -15 11 0 20 7 20 15 0 8 -9 15 -20 15 -11
0 -20 -7 -20 -15z"/>
<path d="M2630 4330 c0 -13 7 -20 20 -20 24 0 25 6 6 26 -20 19 -26 18 -26 -6z"/>
<path d="M2568 4213 c6 -2 18 -2 25 0 6 3 1 5 -13 5 -14 0 -19 -2 -12 -5z"/>
<path d="M2633 4213 c9 -2 23 -2 30 0 6 3 -1 5 -18 5 -16 0 -22 -2 -12 -5z"/>
<path d="M2727 4213 c18 -2 50 -2 70 0 21 2 7 4 -32 4 -38 0 -55 -2 -38 -4z"/>
<path d="M2878 4213 c6 -2 18 -2 25 0 6 3 1 5 -13 5 -14 0 -19 -2 -12 -5z"/>
<path d="M2610 3990 c-351 -26 -700 -203 -922 -467 -204 -242 -310 -509 -324
-818 -23 -480 201 -923 601 -1192 127 -85 272 -147 445 -191 95 -24 123 -26
295 -27 148 0 208 4 270 18 339 77 616 250 808 506 120 159 210 356 253 552
22 102 29 325 15 443 -64 502 -404 930 -876 1100 -103 37 -229 65 -320 71 -44
3 -96 7 -115 9 -19 1 -78 0 -130 -4z m537 -86 c-3 -3 -12 -4 -19 -1 -8 3 -5 6
6 6 11 1 17 -2 13 -5z m138 -51 c44 -20 92 -44 107 -54 14 -11 29 -19 32 -19
3 0 41 -25 83 -57 80 -59 177 -152 215 -206 12 -18 -14 5 -59 50 -113 113
-214 186 -373 267 -140 71 -143 79 -5 19z m-572 5 c18 -28 -7 -68 -43 -68 -38
0 -59 35 -40 69 14 27 67 26 83 -1z m208 -9 c18 -34 -3 -69 -41 -69 -22 0 -33
6 -41 24 -16 35 3 66 41 66 20 0 33 -7 41 -21z m-418 -10 c14 -23 1 -67 -23
-74 -46 -15 -82 49 -48 83 17 17 58 11 71 -9z m605 -25 c39 -27 23 -84 -23
-84 -12 0 -26 5 -33 12 -18 18 -15 65 6 77 23 14 24 14 50 -5z m-817 -24 c37
-20 14 -90 -30 -90 -25 0 -41 20 -41 50 0 44 30 61 71 40z m377 -52 c39 -39
-17 -100 -58 -63 -24 22 -25 38 -4 59 18 19 45 21 62 4z m182 -6 c28 -23 20
-59 -16 -68 -46 -12 -72 37 -38 70 20 20 27 20 54 -2z m458 -4 c7 -7 12 -21
12 -33 0 -12 -5 -26 -12 -33 -17 -17 -65 -15 -72 4 -16 41 1 74 39 74 12 0 26
-5 33 -12z m-818 -27 c18 -35 -18 -79 -54 -65 -22 8 -31 51 -16 69 18 21 57
19 70 -4z m550 -6 c17 -20 4 -62 -21 -70 -15 -5 -28 -1 -42 14 -18 17 -19 24
-9 46 13 29 52 34 72 10z m-920 -15 c6 -12 8 -30 5 -40 -7 -24 -52 -37 -74
-23 -20 13 -26 50 -11 69 19 21 67 18 80 -6z m188 -32 c25 -25 2 -78 -33 -78
-18 0 -45 27 -45 45 0 35 53 58 78 33z m908 -33 c10 -40 -2 -57 -38 -53 -26 2
-34 8 -36 26 -6 37 5 52 37 52 24 0 32 -5 37 -25z m266 -2 c22 -20 23 -41 1
-65 -20 -22 -41 -23 -65 -1 -22 20 -23 46 -2 67 20 21 43 20 66 -1z m-842 -31
c-1 -44 -51 -57 -74 -19 -9 15 -7 22 12 37 27 22 62 12 62 -18z m154 22 c9 -8
16 -19 16 -24 0 -13 -30 -40 -44 -40 -17 0 -36 21 -36 40 0 19 19 40 36 40 7
0 20 -7 28 -16z m160 -20 c19 -19 20 -36 4 -52 -26 -26 -68 -9 -68 28 0 11 29
40 40 40 5 0 16 -7 24 -16z m-1000 -36 c8 -22 6 -32 -9 -48 -24 -27 -51 -25
-71 5 -15 23 -15 27 0 51 23 34 67 30 80 -8z m514 20 c18 -18 14 -46 -7 -58
-25 -13 -48 -4 -56 21 -12 38 35 65 63 37z m-324 -14 c21 -21 20 -37 -3 -58
-25 -23 -59 -13 -67 20 -12 46 37 72 70 38z m1217 -14 c23 -13 25 -52 4 -70
-8 -7 -25 -10 -40 -6 -20 5 -25 13 -25 36 0 17 7 33 18 39 21 13 20 13 43 1z
m-246 -35 c0 -27 -3 -30 -30 -30 -21 0 -31 5 -33 18 -6 33 6 49 35 45 24 -3
28 -8 28 -33z m-795 0 c15 -19 4 -52 -21 -60 -38 -12 -65 35 -37 63 16 16 43
15 58 -3z m418 -39 c5 -26 -26 -50 -45 -35 -14 12 -17 41 -6 53 13 13 48 1 51
-18z m890 8 c26 -18 28 -46 6 -68 -28 -28 -66 -18 -78 21 -5 15 -1 28 13 42
25 25 30 26 59 5z m-1044 0 c29 -11 12 -64 -21 -64 -21 0 -36 39 -22 56 13 16
20 17 43 8z m294 -25 c4 -30 -22 -46 -44 -28 -17 14 -18 46 -1 52 25 11 42 1
45 -24z m387 -9 c8 -26 -11 -50 -40 -50 -25 0 -39 23 -30 51 9 27 61 26 70 -1z
m-1260 -10 c14 -44 -18 -80 -55 -60 -43 23 -30 80 20 80 20 0 31 -6 35 -20z
m169 -6 c19 -18 19 -20 6 -45 -19 -35 -70 -20 -70 21 0 11 29 40 40 40 5 0 16
-7 24 -16z m284 -8 c5 -23 -23 -47 -44 -39 -15 5 -19 44 -7 57 13 13 48 1 51
-18z m557 -6 c0 -18 -6 -26 -23 -28 -13 -2 -25 3 -28 12 -10 26 4 48 28 44 17
-2 23 -10 23 -28z m-1211 1 c32 -35 -3 -89 -49 -77 -33 8 -44 50 -20 76 23 25
47 25 69 1z m1711 -31 c0 -33 -2 -35 -35 -35 -29 0 -36 4 -38 23 -6 40 5 54
40 50 30 -3 33 -6 33 -38z m-1187 -23 c6 -28 -16 -49 -39 -36 -19 10 -25 39
-12 53 13 13 48 1 51 -17z m817 -7 c0 -20 -6 -26 -27 -28 -24 -3 -28 0 -28 21
0 30 9 39 35 35 14 -2 20 -10 20 -28z m246 -12 c10 -18 8 -24 -11 -40 -37 -30
-72 0 -54 46 9 24 51 20 65 -6z m-1341 -22 c6 -8 10 -25 8 -38 -2 -18 -9 -23
-33 -23 -24 0 -31 5 -33 24 -3 15 3 30 14 38 23 17 29 16 44 -1z m1714 -17
c21 -31 -3 -79 -40 -79 -20 0 -44 30 -44 55 0 44 58 60 84 24z m-1880 -11 c12
-20 2 -44 -27 -62 -13 -8 -22 -6 -39 11 -19 19 -20 26 -10 48 9 20 18 26 39
23 14 -2 31 -11 37 -20z m325 -2 c23 -28 -17 -68 -45 -45 -17 14 -18 31 -2 47
16 16 33 15 47 -2z m1055 -8 c8 -14 7 -21 -5 -33 -28 -29 -73 11 -48 42 15 17
38 13 53 -9z m371 -31 c8 -24 6 -31 -10 -43 -24 -18 -40 -18 -59 2 -20 20 -20
38 0 59 24 24 57 15 69 -18z m-1947 -9 c18 -18 15 -53 -7 -72 -28 -25 -71 -6
-71 32 0 33 16 52 45 52 12 0 26 -5 33 -12z m1806 -14 c9 -8 16 -19 16 -24 0
-13 -30 -40 -44 -40 -17 0 -36 21 -36 40 0 19 19 40 36 40 7 0 20 -7 28 -16z
m-1540 -46 c23 -38 -35 -78 -61 -42 -17 23 -16 29 3 49 20 19 43 16 58 -7z
m155 3 c13 -24 -9 -57 -33 -48 -23 9 -31 34 -16 52 17 20 37 19 49 -4z m1251
4 c15 -18 7 -43 -16 -52 -24 -9 -46 24 -33 48 12 23 32 24 49 4z m-354 -31
c76 -45 156 -124 200 -195 47 -78 43 -87 -6 -12 -51 77 -140 160 -213 198 -31
17 -57 33 -57 38 0 13 16 7 76 -29z m-184 -1 c-40 -2 -103 -2 -140 0 -37 2 -4
3 73 3 77 0 107 -2 67 -3z m-1034 -40 c2 -24 -2 -34 -17 -43 -28 -15 -61 3
-61 33 0 31 20 48 50 45 20 -2 26 -9 28 -35z m2074 -9 c16 -34 0 -58 -40 -62
-26 -3 -34 2 -43 21 -16 36 3 67 42 67 22 0 32 -6 41 -26z m-148 0 c31 -31 13
-74 -31 -74 -55 0 -47 83 9 89 4 1 14 -6 22 -15z m-136 -16 c28 -28 1 -75 -36
-63 -23 7 -33 36 -20 59 11 19 39 21 56 4z m-1550 -34 c4 -29 -23 -51 -43 -34
-16 13 -20 42 -8 54 14 14 48 1 51 -20z m1417 -4 c0 -20 -6 -26 -27 -28 -24
-3 -28 0 -28 21 0 30 9 39 35 35 14 -2 20 -10 20 -28z m-1837 -2 c31 -31 -6
-96 -47 -83 -12 3 -26 15 -32 26 -23 43 44 92 79 57z m270 -29 c4 -34 -20 -54
-47 -39 -20 10 -29 49 -14 64 4 4 19 6 33 4 19 -2 26 -10 28 -29z m-164 -55
c20 -19 20 -24 0 -52 -26 -37 -74 -23 -74 23 0 42 44 59 74 29z m254 -40 c4
-29 -23 -51 -43 -34 -16 13 -20 42 -8 54 14 14 48 1 51 -20z m1537 -4 c0 -18
-6 -26 -23 -28 -13 -2 -25 3 -28 12 -10 26 4 48 28 44 17 -2 23 -10 23 -28z
m126 20 c21 -12 25 -40 7 -58 -34 -34 -79 7 -52 46 17 25 19 26 45 12z m147
-12 c19 -19 14 -56 -8 -68 -22 -12 -60 -5 -60 10 0 5 -3 15 -6 23 -12 32 48
61 74 35z m143 -19 c18 -34 -3 -69 -41 -69 -22 0 -33 6 -41 24 -16 35 3 66 41
66 20 0 33 -7 41 -21z m-2101 -23 c19 -24 8 -61 -19 -64 -29 -4 -53 22 -44 46
12 33 43 41 63 18z m-269 -36 c22 -12 26 -59 7 -78 -7 -7 -21 -12 -33 -12 -29
0 -45 19 -45 52 0 39 34 57 71 38z m373 -46 c20 -19 20 -29 0 -48 -19 -20 -54
-5 -54 24 0 15 21 37 37 40 1 0 9 -7 17 -16z m1621 -4 c12 -20 -6 -50 -30 -50
-25 0 -38 21 -29 45 7 17 49 20 59 5z m-1871 -16 c22 -22 20 -50 -6 -68 -42
-29 -87 26 -52 65 21 23 37 24 58 3z m2004 -42 c-2 -23 -8 -27 -33 -27 -24 0
-31 5 -33 24 -5 32 23 54 50 40 13 -7 18 -19 16 -37z m124 1 c32 -29 16 -73
-27 -73 -46 0 -60 48 -23 74 28 20 27 20 50 -1z m-2008 -19 c9 -8 16 -22 16
-29 0 -15 -27 -45 -40 -45 -15 0 -40 31 -40 50 0 17 23 39 42 40 4 0 14 -7 22
-16z m2137 -4 c22 -12 26 -59 7 -78 -7 -7 -21 -12 -33 -12 -43 0 -60 47 -28
82 19 21 27 22 54 8z m-2013 -81 c4 -30 -22 -46 -44 -28 -15 12 -19 41 -7 53
16 16 48 1 51 -25z m1637 1 c0 -20 -6 -26 -27 -28 -24 -3 -28 0 -28 21 0 30 9
39 35 35 14 -2 20 -10 20 -28z m-2014 0 c22 -12 26 -59 7 -78 -40 -40 -105 20
-72 67 17 23 35 26 65 11z m2137 -32 c32 -32 -8 -80 -48 -58 -34 18 -19 70 20
70 9 0 21 -5 28 -12z m-2004 -14 c19 -18 20 -28 6 -55 -20 -37 -80 -18 -80 26
0 42 44 59 74 29z m130 -46 c8 -13 8 -23 0 -35 -16 -26 -51 -28 -64 -4 -25 47
36 83 64 39z m2001 2 c17 -18 17 -21 1 -45 -18 -28 -28 -30 -57 -15 -24 13
-25 56 -1 69 25 15 37 13 57 -9z m-1872 -42 c13 -20 -6 -48 -34 -48 -20 0 -36
40 -24 60 10 16 46 8 58 -12z m1611 -1 c9 -15 7 -21 -8 -32 -35 -26 -74 13
-44 43 16 16 38 12 52 -11z m377 3 c22 -12 26 -59 7 -78 -7 -7 -21 -12 -33
-12 -29 0 -45 19 -45 52 0 39 34 57 71 38z m-277 -56 c24 -9 21 -61 -4 -69
-39 -12 -66 35 -38 63 14 14 20 14 42 6z m-2068 -39 c15 -23 15 -27 0 -50 -9
-14 -24 -25 -33 -25 -24 0 -53 30 -53 55 0 48 58 62 86 20z m124 -5 c11 -11
20 -24 20 -30 0 -13 -37 -50 -49 -50 -36 0 -54 71 -23 89 24 15 29 14 52 -9z
m139 -22 c13 -34 -5 -60 -37 -56 -21 2 -28 9 -30 32 -6 46 51 66 67 24z m126
-33 c0 -25 -4 -30 -25 -30 -16 0 -26 6 -28 18 -6 30 6 49 30 45 18 -2 23 -9
23 -33z m1540 5 c0 -20 -6 -26 -27 -28 -24 -3 -28 0 -28 21 0 30 9 39 35 35
14 -2 20 -10 20 -28z m259 14 c31 -31 13 -74 -31 -74 -55 0 -47 83 9 89 4 1
14 -6 22 -15z m114 -76 c28 -28 7 -78 -33 -78 -27 0 -45 18 -45 45 0 27 18 45
45 45 12 0 26 -5 33 -12z m-270 -30 c4 -37 -28 -55 -56 -30 -30 25 -13 65 25
60 22 -2 29 -9 31 -30z m-1714 -24 c19 -19 20 -35 3 -58 -16 -22 -45 -18 -63
9 -12 18 -11 24 2 43 18 26 37 28 58 6z m136 -5 c18 -32 8 -53 -23 -54 -21 -2
-32 4 -39 21 -21 45 39 77 62 33z m1415 -9 c0 -19 -6 -26 -24 -28 -29 -4 -43
15 -30 41 15 28 54 19 54 -13z m-1683 3 c23 -21 23 -38 -2 -63 -30 -30 -70
-10 -70 36 0 42 39 57 72 27z m-136 -1 c34 -23 15 -92 -26 -92 -40 0 -66 60
-38 88 13 13 47 16 64 4z m582 -82 c81 -78 110 -98 205 -145 61 -30 117 -55
123 -55 8 0 12 -16 11 -42 -1 -24 3 -42 8 -41 6 0 18 -3 28 -8 32 -18 14 -69
-24 -69 -26 0 -34 -20 -16 -38 15 -14 15 -18 -1 -44 -9 -15 -20 -28 -24 -28
-4 0 -8 -7 -8 -15 0 -9 -6 -18 -14 -21 -8 -3 -12 -16 -10 -37 5 -38 -4 -69
-17 -62 -5 4 -9 -1 -9 -9 0 -9 7 -16 15 -16 9 0 15 9 15 22 0 12 3 18 7 14 12
-12 12 -36 0 -36 -7 0 -6 -5 3 -11 13 -9 12 -10 -2 -5 -10 3 -19 1 -19 -4 -1
-6 -2 -15 -3 -20 0 -6 -6 -14 -13 -18 -7 -4 -13 -31 -15 -60 -2 -35 -7 -52
-16 -52 -7 0 -11 4 -8 9 3 5 -1 12 -10 15 -8 3 -12 2 -9 -4 10 -16 -19 -12
-107 16 -103 33 -231 95 -328 160 -135 89 -342 308 -355 375 -2 12 -2 19 2 15
16 -15 31 17 26 55 -5 31 -2 43 13 54 11 8 25 15 33 15 23 0 51 -31 51 -57 0
-12 5 -23 11 -23 6 0 9 6 6 14 -3 7 0 19 6 26 9 10 9 11 0 6 -8 -4 -5 6 5 24
9 16 25 33 34 36 20 6 58 -12 58 -28 0 -7 4 -7 14 1 8 7 12 21 9 31 -3 12 0
20 6 20 7 0 10 -4 6 -9 -3 -5 -1 -12 4 -15 5 -4 8 5 7 18 -2 17 3 26 16 30 11
2 17 9 13 15 -4 7 0 8 11 4 11 -4 13 -8 6 -11 -7 -2 -10 -8 -6 -13 3 -5 12 -2
20 6 9 8 20 12 26 9 7 -4 8 -2 4 5 -4 6 -12 9 -17 6 -15 -10 -10 2 8 16 11 10
14 10 9 2 -4 -7 -2 -13 3 -13 6 0 11 5 11 11 0 5 4 8 9 4 5 -3 19 9 32 26 16
23 24 28 30 17 7 -10 9 -9 9 5 0 32 25 17 118 -73z m1490 48 c7 -7 12 -22 12
-35 0 -28 -36 -46 -62 -31 -34 17 -16 78 22 78 9 0 21 -5 28 -12z m-1393 -48
c10 -11 16 -20 13 -20 -3 0 -13 9 -23 20 -10 11 -16 20 -13 20 3 0 13 -9 23
-20z m1209 4 c21 -8 21 -60 0 -68 -42 -16 -74 30 -42 62 14 14 20 14 42 6z
m-144 -34 c0 -36 -33 -53 -58 -28 -16 16 -15 23 4 42 12 12 20 13 35 6 10 -6
19 -15 19 -20z m430 -14 c29 -36 -13 -92 -57 -75 -26 9 -32 56 -11 77 16 16
53 15 68 -2z m-1929 -23 c13 -16 12 -17 -3 -4 -17 13 -22 21 -14 21 2 0 10 -8
17 -17z m1739 -53 c12 -22 0 -55 -22 -63 -23 -7 -58 15 -58 38 0 44 60 63 80
25z m-345 0 c12 -20 -6 -50 -30 -50 -29 0 -38 13 -30 40 7 21 49 28 60 10z
m159 -22 c13 -21 -2 -51 -26 -56 -16 -3 -48 23 -48 38 0 15 32 41 48 38 8 -2
20 -11 26 -20z m-279 -78 c0 -20 -6 -26 -26 -28 -30 -4 -46 22 -28 45 20 23
54 12 54 -17z m533 4 c26 -18 28 -41 5 -66 -20 -22 -46 -23 -67 -2 -21 21 -20
40 4 64 24 24 29 24 58 4z m-380 -26 c32 -32 -8 -80 -48 -58 -34 18 -19 70 20
70 9 0 21 -5 28 -12z m176 -4 c24 -9 21 -61 -4 -74 -41 -22 -80 21 -54 59 16
22 31 26 58 15z m-459 -34 c0 -20 -6 -26 -26 -28 -30 -4 -46 22 -28 45 20 23
54 12 54 -17z m-132 -22 c7 -21 -12 -48 -34 -48 -22 0 -34 22 -25 45 7 18 53
20 59 3z m-145 -24 c4 -30 -21 -48 -47 -34 -21 11 -28 40 -14 54 15 15 58 1
61 -20z m427 -13 c12 -40 -15 -62 -59 -45 -19 7 -21 35 -4 52 18 18 56 15 63
-7z m183 -55 c5 -23 -16 -46 -42 -46 -46 0 -62 48 -24 74 19 13 25 14 43 2 11
-7 21 -21 23 -30z m192 24 c11 -11 20 -25 20 -32 0 -20 -32 -48 -55 -48 -46 0
-62 57 -23 84 29 20 34 20 58 -4z m-529 -26 c19 -23 -1 -49 -37 -49 -30 0 -42
20 -30 51 7 19 50 18 67 -2z m-340 -24 c25 -14 25 -56 -1 -70 -45 -24 -86 44
-42 69 21 13 20 13 43 1z m177 -2 c7 -7 12 -18 12 -24 0 -17 -28 -44 -45 -44
-15 0 -45 27 -45 40 0 15 31 40 49 40 9 0 22 -5 29 -12z m332 -48 c8 -14 8
-26 0 -40 -19 -35 -80 -20 -80 20 0 40 61 55 80 20z m194 -26 c22 -21 20 -47
-5 -70 -19 -17 -23 -17 -47 -3 -33 18 -39 44 -16 70 21 23 47 24 68 3z m-370
-36 c14 -23 -3 -52 -33 -56 -42 -6 -67 38 -39 66 17 17 58 11 72 -10z m-497
-20 c-3 -8 -6 -5 -6 6 -1 11 2 17 5 13 3 -3 4 -12 1 -19z m114 12 c21 -12 25
-50 7 -68 -19 -19 -66 -15 -78 7 -14 27 -13 37 6 55 18 19 38 20 65 6z m199
-20 c16 -30 -4 -60 -40 -60 -19 0 -33 7 -40 20 -16 30 4 60 40 60 19 0 33 -7
40 -20z m380 -60 c0 -52 -57 -70 -85 -26 -14 20 -14 28 -3 45 25 41 88 28 88
-19z m-216 -26 c19 -7 21 -55 4 -72 -18 -18 -53 -14 -73 8 -15 17 -16 24 -7
45 12 25 41 32 76 19z m-410 -20 c34 -33 8 -84 -42 -84 -25 0 -62 29 -62 48 0
5 9 18 20 30 24 26 62 29 84 6z m212 -19 c15 -23 15 -27 0 -50 -9 -14 -25 -25
-36 -25 -21 0 -60 33 -60 50 0 17 39 50 60 50 11 0 27 -11 36 -25z"/>
<path d="M2106 2137 c3 -10 9 -15 12 -12 3 3 0 11 -7 18 -10 9 -11 8 -5 -6z"/>
<path d="M1982 2098 c7 -15 15 -23 17 -17 2 6 -4 18 -13 27 -15 15 -15 15 -4
-10z"/>
<path d="M1650 1940 c-9 -6 -10 -10 -3 -10 6 0 15 5 18 10 8 12 4 12 -15 0z"/>
<path d="M1930 1946 c0 -2 9 -6 20 -9 11 -3 18 -1 14 4 -5 9 -34 13 -34 5z"/>
<path d="M1981 1914 c0 -11 3 -14 6 -6 3 7 2 16 -1 19 -3 4 -6 -2 -5 -13z"/>
<path d="M2438 1900 c12 -5 22 -15 22 -21 0 -7 3 -9 6 -6 10 10 -16 37 -35 36
-11 0 -9 -3 7 -9z"/>
<path d="M1817 1893 c13 -2 30 -14 38 -26 8 -12 15 -16 15 -10 0 19 -30 43
-53 42 -22 -2 -22 -2 0 -6z"/>
<path d="M2111 1803 c7 -12 15 -20 18 -17 3 2 -3 12 -13 22 -17 16 -18 16 -5
-5z"/>
<path d="M2366 1797 c3 -10 9 -15 12 -12 3 3 0 11 -7 18 -10 9 -11 8 -5 -6z"/>
<path d="M2487 1763 c12 -2 27 -11 33 -19 7 -8 18 -14 24 -14 6 1 0 10 -13 20
-13 11 -33 19 -45 19 l-21 -2 22 -4z"/>
<path d="M1987 1740 c12 -5 24 -18 28 -30 4 -12 9 -19 12 -16 10 10 -27 56
-45 55 -13 0 -12 -2 5 -9z"/>
<path d="M2238 1723 c7 -3 16 -2 19 1 4 3 -2 6 -13 5 -11 0 -14 -3 -6 -6z"/>
<path d="M2270 1711 c0 -6 4 -13 10 -16 6 -3 7 1 4 9 -7 18 -14 21 -14 7z"/>
<path d="M2430 1650 c29 -23 48 -26 31 -6 -6 8 -22 16 -34 20 -21 5 -21 4 3
-14z"/>
<path d="M2147 1633 c13 -2 30 -14 38 -26 8 -12 15 -17 15 -11 0 18 -35 44
-56 43 -15 -1 -15 -3 3 -6z"/>
<path d="M2316 1551 c-3 -4 5 -6 18 -4 17 4 28 -2 40 -18 9 -13 16 -18 16 -12
0 30 -60 57 -74 34z"/>
<path d="M4561 3114 c0 -11 3 -14 6 -6 3 7 2 16 -1 19 -3 4 -6 -2 -5 -13z"/>
<path d="M4571 3074 c0 -11 3 -14 6 -6 3 7 2 16 -1 19 -3 4 -6 -2 -5 -13z"/>
<path d="M4581 3034 c0 -11 3 -14 6 -6 3 7 2 16 -1 19 -3 4 -6 -2 -5 -13z"/>
<path d="M4601 2934 c0 -11 3 -14 6 -6 3 7 2 16 -1 19 -3 4 -6 -2 -5 -13z"/>
</g>
</svg>
